<svg id="visual" viewBox="0 0 900 600" width="900" height="600" xmlns="http://www.w3.org/2000/svg" xmlns:xlink="http://www.w3.org/1999/xlink" version="1.1"><rect x="0" y="0" width="900" height="600" fill="#001220"></rect><defs><linearGradient id="grad1_0" x1="33.3%" y1="0%" x2="100%" y2="100%"><stop offset="20%" stop-color="#001220" stop-opacity="1"></stop><stop offset="80%" stop-color="#001220" stop-opacity="1"></stop></linearGradient></defs><defs><linearGradient id="grad2_0" x1="0%" y1="0%" x2="66.7%" y2="100%"><stop offset="20%" stop-color="#001220" stop-opacity="1"></stop><stop offset="80%" stop-color="#001220" stop-opacity="1"></stop></linearGradient></defs><g transform="translate(900, 0)"><path d="M0 486.7C-65 478.1 -130 469.5 -182.9 441.6C-235.9 413.8 -276.7 366.7 -323.1 323.1C-369.6 279.6 -421.5 239.5 -449.7 186.3C-477.9 133 -482.3 66.5 -486.7 0L0 0Z" fill="#FCAF3C"></path></g><g transform="translate(0, 600)"><path d="M0 -486.7C63.6 -479.6 127.2 -472.4 186.3 -449.7C245.3 -427 299.8 -388.7 341.5 -341.5C383.2 -294.4 412.2 -238.3 434.2 -179.9C456.3 -121.5 471.5 -60.7 486.7 0L0 0Z" fill="#FCAF3C"></path></g></svg>