<svg id="visual" viewBox="0 0 900 450" width="900" height="450" xmlns="http://www.w3.org/2000/svg" xmlns:xlink="http://www.w3.org/1999/xlink" version="1.1"><g stroke-width="1" stroke-linejoin="bevel"><path d="M435 197.9L408.7 224.9L455 284.1Z" fill="#19435d" stroke="#19435d"></path><path d="M408.7 224.9L397.7 276.1L455 284.1Z" fill="#205a7a" stroke="#205a7a"></path><path d="M455 284.1L522.3 225.9L435 197.9Z" fill="#081a28" stroke="#081a28"></path><path d="M455 284.1L533.3 266.1L522.3 225.9Z" fill="#1d4e6b" stroke="#1d4e6b"></path><path d="M397.7 276.1L439 327.4L455 284.1Z" fill="#0c2435" stroke="#0c2435"></path><path d="M455 284.1L507.3 342.4L533.3 266.1Z" fill="#112e42" stroke="#112e42"></path><path d="M544.6 177.9L511.3 164.6L522.3 225.9Z" fill="#205a7a" stroke="#205a7a"></path><path d="M522.3 225.9L511.3 164.6L435 197.9Z" fill="#112e42" stroke="#112e42"></path><path d="M330.4 209.9L351.4 279.1L408.7 224.9Z" fill="#1d4e6b" stroke="#1d4e6b"></path><path d="M408.7 224.9L351.4 279.1L397.7 276.1Z" fill="#00101c" stroke="#00101c"></path><path d="M397.7 276.1L349.4 320.4L439 327.4Z" fill="#246688" stroke="#246688"></path><path d="M511.3 164.6L472 132.6L435 197.9Z" fill="#297ea6" stroke="#297ea6"></path><path d="M435 197.9L330.4 209.9L408.7 224.9Z" fill="#297ea6" stroke="#297ea6"></path><path d="M582.6 226.1L544.6 177.9L522.3 225.9Z" fill="#1d4e6b" stroke="#1d4e6b"></path><path d="M589.6 92.6L476 66.3L472 132.6Z" fill="#0c2435" stroke="#0c2435"></path><path d="M351.4 279.1L350.7 296.4L397.7 276.1Z" fill="#19435d" stroke="#19435d"></path><path d="M439 327.4L507.3 342.4L455 284.1Z" fill="#00101c" stroke="#00101c"></path><path d="M406.7 101.6L330.4 209.9L435 197.9Z" fill="#112e42" stroke="#112e42"></path><path d="M351.4 279.1L292.1 262.1L350.7 296.4Z" fill="#1d4e6b" stroke="#1d4e6b"></path><path d="M354.7 395.7L458 368.7L439 327.4Z" fill="#205a7a" stroke="#205a7a"></path><path d="M439 327.4L458 368.7L507.3 342.4Z" fill="#1d4e6b" stroke="#1d4e6b"></path><path d="M292.1 262.1L349.4 320.4L350.7 296.4Z" fill="#081a28" stroke="#081a28"></path><path d="M350.7 296.4L349.4 320.4L397.7 276.1Z" fill="#15384f" stroke="#15384f"></path><path d="M589.6 333.4L582.6 226.1L533.3 266.1Z" fill="#1d4e6b" stroke="#1d4e6b"></path><path d="M533.3 266.1L582.6 226.1L522.3 225.9Z" fill="#297ea6" stroke="#297ea6"></path><path d="M472 132.6L406.7 101.6L435 197.9Z" fill="#277297" stroke="#277297"></path><path d="M265.1 181.9L292.1 262.1L330.4 209.9Z" fill="#297ea6" stroke="#297ea6"></path><path d="M330.4 209.9L292.1 262.1L351.4 279.1Z" fill="#277297" stroke="#277297"></path><path d="M578.6 410.7L589.6 333.4L507.3 342.4Z" fill="#0c2435" stroke="#0c2435"></path><path d="M507.3 342.4L589.6 333.4L533.3 266.1Z" fill="#1d4e6b" stroke="#1d4e6b"></path><path d="M460 450L508.3 398.7L458 368.7Z" fill="#081a28" stroke="#081a28"></path><path d="M458 368.7L508.3 398.7L507.3 342.4Z" fill="#297ea6" stroke="#297ea6"></path><path d="M582.6 226.1L603.9 166.9L544.6 177.9Z" fill="#081a28" stroke="#081a28"></path><path d="M544.6 177.9L589.6 92.6L511.3 164.6Z" fill="#19435d" stroke="#19435d"></path><path d="M472 132.6L476 66.3L406.7 101.6Z" fill="#00101c" stroke="#00101c"></path><path d="M674.1 227.9L603.9 166.9L582.6 226.1Z" fill="#297ea6" stroke="#297ea6"></path><path d="M589.6 92.6L472 132.6L511.3 164.6Z" fill="#081a28" stroke="#081a28"></path><path d="M300.4 376.7L354.7 395.7L349.4 320.4Z" fill="#00101c" stroke="#00101c"></path><path d="M349.4 320.4L354.7 395.7L439 327.4Z" fill="#1d4e6b" stroke="#1d4e6b"></path><path d="M292.4 121.6L265.1 181.9L330.4 209.9Z" fill="#19435d" stroke="#19435d"></path><path d="M605.9 368.7L620.9 336.4L589.6 333.4Z" fill="#246688" stroke="#246688"></path><path d="M589.6 333.4L620.9 336.4L582.6 226.1Z" fill="#081a28" stroke="#081a28"></path><path d="M334.4 70.3L292.4 121.6L406.7 101.6Z" fill="#0c2435" stroke="#0c2435"></path><path d="M406.7 101.6L292.4 121.6L330.4 209.9Z" fill="#15384f" stroke="#15384f"></path><path d="M578.6 410.7L605.9 368.7L589.6 333.4Z" fill="#15384f" stroke="#15384f"></path><path d="M603.9 166.9L589.6 92.6L544.6 177.9Z" fill="#1d4e6b" stroke="#1d4e6b"></path><path d="M292.1 262.1L300.4 376.7L349.4 320.4Z" fill="#277297" stroke="#277297"></path><path d="M232.1 319.4L300.4 376.7L292.1 262.1Z" fill="#277297" stroke="#277297"></path><path d="M359.7 49.3L334.4 70.3L406.7 101.6Z" fill="#0c2435" stroke="#0c2435"></path><path d="M412.7 450L458 368.7L354.7 395.7Z" fill="#246688" stroke="#246688"></path><path d="M412.7 450L460 450L458 368.7Z" fill="#15384f" stroke="#15384f"></path><path d="M508.3 398.7L578.6 410.7L507.3 342.4Z" fill="#0c2435" stroke="#0c2435"></path><path d="M401.7 0L359.7 49.3L406.7 101.6Z" fill="#00101c" stroke="#00101c"></path><path d="M460 450L476.3 450L508.3 398.7Z" fill="#297ea6" stroke="#297ea6"></path><path d="M543.6 450L578.6 410.7L508.3 398.7Z" fill="#277297" stroke="#277297"></path><path d="M358.4 450L412.7 450L354.7 395.7Z" fill="#15384f" stroke="#15384f"></path><path d="M275.1 41.3L286.1 94.6L334.4 70.3Z" fill="#297ea6" stroke="#297ea6"></path><path d="M334.4 70.3L286.1 94.6L292.4 121.6Z" fill="#297ea6" stroke="#297ea6"></path><path d="M292.4 121.6L213.9 120.6L265.1 181.9Z" fill="#246688" stroke="#246688"></path><path d="M589.6 92.6L578.6 59.3L476 66.3Z" fill="#205a7a" stroke="#205a7a"></path><path d="M476 66.3L401.7 0L406.7 101.6Z" fill="#277297" stroke="#277297"></path><path d="M673.9 257.1L582.6 226.1L620.9 336.4Z" fill="#15384f" stroke="#15384f"></path><path d="M673.9 257.1L674.1 227.9L582.6 226.1Z" fill="#205a7a" stroke="#205a7a"></path><path d="M603.9 166.9L679.9 138.6L589.6 92.6Z" fill="#297ea6" stroke="#297ea6"></path><path d="M589.6 92.6L680.9 39.3L578.6 59.3Z" fill="#246688" stroke="#246688"></path><path d="M685.1 255.1L673.9 257.1L717.1 366.7Z" fill="#19435d" stroke="#19435d"></path><path d="M578.6 59.3L542.3 34.3L476 66.3Z" fill="#246688" stroke="#246688"></path><path d="M300.4 376.7L358.4 450L354.7 395.7Z" fill="#081a28" stroke="#081a28"></path><path d="M476.3 450L543.6 450L508.3 398.7Z" fill="#081a28" stroke="#081a28"></path><path d="M153.9 244.1L232.1 319.4L292.1 262.1Z" fill="#00101c" stroke="#00101c"></path><path d="M300.4 376.7L262.1 450L358.4 450Z" fill="#19435d" stroke="#19435d"></path><path d="M717.1 366.7L673.9 257.1L620.9 336.4Z" fill="#081a28" stroke="#081a28"></path><path d="M673.9 257.1L685.1 255.1L674.1 227.9Z" fill="#1d4e6b" stroke="#1d4e6b"></path><path d="M717.1 366.7L620.9 336.4L605.9 368.7Z" fill="#081a28" stroke="#081a28"></path><path d="M515.3 0L481 0L476 66.3Z" fill="#297ea6" stroke="#297ea6"></path><path d="M481 0L401.7 0L476 66.3Z" fill="#081a28" stroke="#081a28"></path><path d="M319.4 0L275.1 41.3L334.4 70.3Z" fill="#297ea6" stroke="#297ea6"></path><path d="M542.3 34.3L515.3 0L476 66.3Z" fill="#19435d" stroke="#19435d"></path><path d="M571.6 0L515.3 0L542.3 34.3Z" fill="#00101c" stroke="#00101c"></path><path d="M717.1 158.6L679.9 138.6L674.1 227.9Z" fill="#1d4e6b" stroke="#1d4e6b"></path><path d="M674.1 227.9L679.9 138.6L603.9 166.9Z" fill="#112e42" stroke="#112e42"></path><path d="M578.6 59.3L571.6 0L542.3 34.3Z" fill="#081a28" stroke="#081a28"></path><path d="M543.6 450L603.9 450L578.6 410.7Z" fill="#081a28" stroke="#081a28"></path><path d="M578.6 410.7L603.9 450L605.9 368.7Z" fill="#1d4e6b" stroke="#1d4e6b"></path><path d="M153.9 244.1L205.9 340.4L232.1 319.4Z" fill="#246688" stroke="#246688"></path><path d="M232.1 319.4L205.9 340.4L300.4 376.7Z" fill="#00101c" stroke="#00101c"></path><path d="M153.9 244.1L292.1 262.1L265.1 181.9Z" fill="#277297" stroke="#277297"></path><path d="M319.4 0L334.4 70.3L359.7 49.3Z" fill="#297ea6" stroke="#297ea6"></path><path d="M286.1 94.6L213.9 120.6L292.4 121.6Z" fill="#1d4e6b" stroke="#1d4e6b"></path><path d="M275.1 41.3L213.9 120.6L286.1 94.6Z" fill="#0c2435" stroke="#0c2435"></path><path d="M659.9 0L571.6 0L578.6 59.3Z" fill="#00101c" stroke="#00101c"></path><path d="M401.7 0L319.4 0L359.7 49.3Z" fill="#297ea6" stroke="#297ea6"></path><path d="M765.4 241.1L717.1 158.6L674.1 227.9Z" fill="#246688" stroke="#246688"></path><path d="M679.9 138.6L680.9 39.3L589.6 92.6Z" fill="#277297" stroke="#277297"></path><path d="M221.1 415.7L262.1 450L300.4 376.7Z" fill="#0c2435" stroke="#0c2435"></path><path d="M169.9 90.3L168.9 177.9L213.9 120.6Z" fill="#1d4e6b" stroke="#1d4e6b"></path><path d="M213.9 120.6L168.9 177.9L265.1 181.9Z" fill="#112e42" stroke="#112e42"></path><path d="M205.9 340.4L221.1 415.7L300.4 376.7Z" fill="#0c2435" stroke="#0c2435"></path><path d="M182.9 361.7L221.1 415.7L205.9 340.4Z" fill="#277297" stroke="#277297"></path><path d="M105.6 293.4L182.9 361.7L205.9 340.4Z" fill="#1d4e6b" stroke="#1d4e6b"></path><path d="M681.1 450L717.1 366.7L605.9 368.7Z" fill="#112e42" stroke="#112e42"></path><path d="M685.1 255.1L765.4 241.1L674.1 227.9Z" fill="#297ea6" stroke="#297ea6"></path><path d="M168.9 177.9L155.6 223.9L265.1 181.9Z" fill="#19435d" stroke="#19435d"></path><path d="M155.6 223.9L153.9 244.1L265.1 181.9Z" fill="#246688" stroke="#246688"></path><path d="M728.1 96.3L680.9 39.3L679.9 138.6Z" fill="#15384f" stroke="#15384f"></path><path d="M717.1 366.7L750.4 313.4L685.1 255.1Z" fill="#277297" stroke="#277297"></path><path d="M603.9 450L681.1 450L605.9 368.7Z" fill="#112e42" stroke="#112e42"></path><path d="M717.1 366.7L742.1 359.4L750.4 313.4Z" fill="#00101c" stroke="#00101c"></path><path d="M762.4 111.6L728.1 96.3L717.1 158.6Z" fill="#0c2435" stroke="#0c2435"></path><path d="M717.1 158.6L728.1 96.3L679.9 138.6Z" fill="#205a7a" stroke="#205a7a"></path><path d="M750.4 313.4L765.4 241.1L685.1 255.1Z" fill="#112e42" stroke="#112e42"></path><path d="M809.4 406.7L742.1 359.4L796.4 450Z" fill="#19435d" stroke="#19435d"></path><path d="M831.7 207.9L776.4 214.9L840.7 248.1Z" fill="#15384f" stroke="#15384f"></path><path d="M675.1 0L659.9 0L680.9 39.3Z" fill="#1d4e6b" stroke="#1d4e6b"></path><path d="M680.9 39.3L659.9 0L578.6 59.3Z" fill="#081a28" stroke="#081a28"></path><path d="M91.6 270.1L153.9 244.1L155.6 223.9Z" fill="#00101c" stroke="#00101c"></path><path d="M275.1 41.3L169.9 90.3L213.9 120.6Z" fill="#277297" stroke="#277297"></path><path d="M222.1 0L169.9 90.3L275.1 41.3Z" fill="#0c2435" stroke="#0c2435"></path><path d="M776.4 214.9L765.4 241.1L840.7 248.1Z" fill="#081a28" stroke="#081a28"></path><path d="M765.4 241.1L776.4 214.9L717.1 158.6Z" fill="#1d4e6b" stroke="#1d4e6b"></path><path d="M797.4 0L675.1 0L680.9 39.3Z" fill="#19435d" stroke="#19435d"></path><path d="M319.4 0L222.1 0L275.1 41.3Z" fill="#297ea6" stroke="#297ea6"></path><path d="M776.4 214.9L762.4 111.6L717.1 158.6Z" fill="#297ea6" stroke="#297ea6"></path><path d="M728.1 96.3L799.4 32.3L680.9 39.3Z" fill="#246688" stroke="#246688"></path><path d="M222.1 0L209.9 0L169.9 90.3Z" fill="#246688" stroke="#246688"></path><path d="M91.6 270.1L105.6 293.4L153.9 244.1Z" fill="#205a7a" stroke="#205a7a"></path><path d="M153.9 244.1L105.6 293.4L205.9 340.4Z" fill="#19435d" stroke="#19435d"></path><path d="M182.9 361.7L164.9 450L221.1 415.7Z" fill="#19435d" stroke="#19435d"></path><path d="M91.6 270.1L155.6 223.9L38.3 208.9Z" fill="#19435d" stroke="#19435d"></path><path d="M162.6 450L164.9 450L182.9 361.7Z" fill="#19435d" stroke="#19435d"></path><path d="M221.1 415.7L164.9 450L262.1 450Z" fill="#112e42" stroke="#112e42"></path><path d="M112.6 393.7L162.6 450L182.9 361.7Z" fill="#0c2435" stroke="#0c2435"></path><path d="M38.3 208.9L155.6 223.9L168.9 177.9Z" fill="#00101c" stroke="#00101c"></path><path d="M105.6 293.4L112.6 393.7L182.9 361.7Z" fill="#1d4e6b" stroke="#1d4e6b"></path><path d="M91.6 270.1L89.3 292.4L105.6 293.4Z" fill="#00101c" stroke="#00101c"></path><path d="M116.6 78.3L105.6 108.6L169.9 90.3Z" fill="#205a7a" stroke="#205a7a"></path><path d="M169.9 90.3L105.6 108.6L168.9 177.9Z" fill="#081a28" stroke="#081a28"></path><path d="M91.6 270.1L36.3 290.1L89.3 292.4Z" fill="#112e42" stroke="#112e42"></path><path d="M159.6 0L116.6 78.3L169.9 90.3Z" fill="#0c2435" stroke="#0c2435"></path><path d="M89.3 292.4L112.6 393.7L105.6 293.4Z" fill="#15384f" stroke="#15384f"></path><path d="M209.9 0L159.6 0L169.9 90.3Z" fill="#0c2435" stroke="#0c2435"></path><path d="M831.7 207.9L801.7 94.6L762.4 111.6Z" fill="#0c2435" stroke="#0c2435"></path><path d="M762.4 111.6L799.4 32.3L728.1 96.3Z" fill="#297ea6" stroke="#297ea6"></path><path d="M840.7 248.1L765.4 241.1L750.4 313.4Z" fill="#15384f" stroke="#15384f"></path><path d="M776.4 214.9L831.7 207.9L762.4 111.6Z" fill="#112e42" stroke="#112e42"></path><path d="M858.7 335.4L840.7 248.1L750.4 313.4Z" fill="#112e42" stroke="#112e42"></path><path d="M858.7 335.4L750.4 313.4L742.1 359.4Z" fill="#0c2435" stroke="#0c2435"></path><path d="M78.3 0L89.3 80.3L116.6 78.3Z" fill="#112e42" stroke="#112e42"></path><path d="M116.6 78.3L89.3 80.3L105.6 108.6Z" fill="#0c2435" stroke="#0c2435"></path><path d="M105.6 108.6L38.3 208.9L168.9 177.9Z" fill="#205a7a" stroke="#205a7a"></path><path d="M796.4 450L742.1 359.4L717.1 366.7Z" fill="#205a7a" stroke="#205a7a"></path><path d="M681.1 450L796.4 450L717.1 366.7Z" fill="#15384f" stroke="#15384f"></path><path d="M840.7 0L799.4 32.3L864.7 31.3Z" fill="#1d4e6b" stroke="#1d4e6b"></path><path d="M801.7 94.6L799.4 32.3L762.4 111.6Z" fill="#19435d" stroke="#19435d"></path><path d="M797.4 0L799.4 32.3L840.7 0Z" fill="#205a7a" stroke="#205a7a"></path><path d="M796.4 450L817.7 423.7L809.4 406.7Z" fill="#081a28" stroke="#081a28"></path><path d="M809.4 406.7L858.7 335.4L742.1 359.4Z" fill="#19435d" stroke="#19435d"></path><path d="M34.3 154.6L38.3 208.9L105.6 108.6Z" fill="#00101c" stroke="#00101c"></path><path d="M89.3 292.4L28.3 352.7L112.6 393.7Z" fill="#00101c" stroke="#00101c"></path><path d="M38.3 208.9L36.3 290.1L91.6 270.1Z" fill="#205a7a" stroke="#205a7a"></path><path d="M900 416.7L858.7 335.4L809.4 406.7Z" fill="#277297" stroke="#277297"></path><path d="M900 123.6L801.7 94.6L831.7 207.9Z" fill="#277297" stroke="#277297"></path><path d="M900 193.9L831.7 207.9L840.7 248.1Z" fill="#0c2435" stroke="#0c2435"></path><path d="M799.4 32.3L797.4 0L680.9 39.3Z" fill="#297ea6" stroke="#297ea6"></path><path d="M89.3 80.3L34.3 154.6L105.6 108.6Z" fill="#246688" stroke="#246688"></path><path d="M38.3 208.9L0 227.1L36.3 290.1Z" fill="#246688" stroke="#246688"></path><path d="M28.3 352.7L77.3 450L112.6 393.7Z" fill="#15384f" stroke="#15384f"></path><path d="M112.6 393.7L77.3 450L162.6 450Z" fill="#081a28" stroke="#081a28"></path><path d="M0 332.4L28.3 352.7L36.3 290.1Z" fill="#112e42" stroke="#112e42"></path><path d="M36.3 290.1L28.3 352.7L89.3 292.4Z" fill="#15384f" stroke="#15384f"></path><path d="M159.6 0L78.3 0L116.6 78.3Z" fill="#205a7a" stroke="#205a7a"></path><path d="M89.3 80.3L0 125.6L34.3 154.6Z" fill="#0c2435" stroke="#0c2435"></path><path d="M0 196.9L38.3 208.9L34.3 154.6Z" fill="#0c2435" stroke="#0c2435"></path><path d="M0 196.9L0 227.1L38.3 208.9Z" fill="#0c2435" stroke="#0c2435"></path><path d="M900 293.1L900 193.9L840.7 248.1Z" fill="#205a7a" stroke="#205a7a"></path><path d="M858.7 335.4L900 293.1L840.7 248.1Z" fill="#112e42" stroke="#112e42"></path><path d="M900 298.4L900 293.1L858.7 335.4Z" fill="#205a7a" stroke="#205a7a"></path><path d="M0 125.6L0 196.9L34.3 154.6Z" fill="#19435d" stroke="#19435d"></path><path d="M900 416.7L900 298.4L858.7 335.4Z" fill="#277297" stroke="#277297"></path><path d="M796.4 450L853.7 450L817.7 423.7Z" fill="#205a7a" stroke="#205a7a"></path><path d="M817.7 423.7L900 416.7L809.4 406.7Z" fill="#0c2435" stroke="#0c2435"></path><path d="M864.7 31.3L799.4 32.3L801.7 94.6Z" fill="#205a7a" stroke="#205a7a"></path><path d="M0 227.1L0 332.4L36.3 290.1Z" fill="#277297" stroke="#277297"></path><path d="M28.3 352.7L0 374.7L77.3 450Z" fill="#246688" stroke="#246688"></path><path d="M900 123.6L864.7 31.3L801.7 94.6Z" fill="#081a28" stroke="#081a28"></path><path d="M900 193.9L900 123.6L831.7 207.9Z" fill="#081a28" stroke="#081a28"></path><path d="M0 62.3L0 125.6L89.3 80.3Z" fill="#112e42" stroke="#112e42"></path><path d="M0 332.4L0 374.7L28.3 352.7Z" fill="#00101c" stroke="#00101c"></path><path d="M853.7 450L900 416.7L817.7 423.7Z" fill="#0c2435" stroke="#0c2435"></path><path d="M78.3 0L0 62.3L89.3 80.3Z" fill="#00101c" stroke="#00101c"></path><path d="M900 123.6L900 49.3L864.7 31.3Z" fill="#00101c" stroke="#00101c"></path><path d="M864.7 31.3L900 0L840.7 0Z" fill="#277297" stroke="#277297"></path><path d="M853.7 450L900 450L900 416.7Z" fill="#205a7a" stroke="#205a7a"></path><path d="M0 374.7L0 450L77.3 450Z" fill="#205a7a" stroke="#205a7a"></path><path d="M900 49.3L900 0L864.7 31.3Z" fill="#19435d" stroke="#19435d"></path><path d="M78.3 0L0 0L0 62.3Z" fill="#246688" stroke="#246688"></path></g></svg>